<svg width="112" height="80" viewBox="0 0 112 80" fill="none" xmlns="http://www.w3.org/2000/svg">
<path d="M2.46845 39.7009C2.46845 19.0828 19.1827 2.3686 39.8007 2.3686C60.4188 2.3686 77.133 19.0828 77.133 39.7009C77.133 60.3189 60.4188 77.0332 39.8007 77.0332C19.1827 77.0332 2.46845 60.3189 2.46845 39.7009Z" fill="white"/>
<path d="M2.46845 39.7009C2.46845 19.0828 19.1827 2.3686 39.8007 2.3686C60.4188 2.3686 77.133 19.0828 77.133 39.7009C77.133 60.3189 60.4188 77.0332 39.8007 77.0332C19.1827 77.0332 2.46845 60.3189 2.46845 39.7009Z" stroke="url(#paint0_linear_8777_16613)" stroke-width="4.26551"/>
<path fill-rule="evenodd" clip-rule="evenodd" d="M39.2202 30.2796C45.2761 28.4003 58.0335 33.2516 58.9534 37.4619C59.6847 40.8088 60.4159 45.0825 59.2749 49.9728C57.9891 55.4832 55.9315 57.6169 54.0703 59.3517C52.5019 60.8135 51.7261 61.0376 50.0765 61.8961C48.255 62.4767 46.5035 62.9949 44.4151 63.4126C44.3606 63.4234 44.3058 63.4342 44.2507 63.4451C42.4658 63.9309 40.6102 64.1178 39.393 64.0689C39.3353 64.0672 39.2777 64.0655 39.2202 64.0635C39.1627 64.0655 39.1051 64.0672 39.0474 64.0689C37.83 64.1178 35.9746 63.9309 34.1897 63.4451C34.1346 63.4342 34.0798 63.4234 34.0253 63.4126C31.9369 62.9949 30.1853 62.4767 28.3638 61.8961C26.7142 61.0376 25.9384 60.8135 24.37 59.3517C22.5088 57.6169 20.4513 55.4832 19.1655 49.9728C18.0245 45.0825 18.7557 40.8088 19.4869 37.4619C20.4068 33.2516 33.1643 28.4003 39.2202 30.2796ZM33.1013 59.4951C34.6464 59.6402 36.8101 59.6858 39.2687 59.6625C41.7275 59.6858 43.8911 59.6402 45.4363 59.4951C45.7405 59.4825 46.0454 59.4694 46.3503 59.4557C48.9272 58.8682 51.7561 57.8813 53.4932 55.8776C55.8878 53.5019 57.3927 50.0716 57.3927 46.2598C57.3927 39.0954 52.0764 33.2788 45.5284 33.2788C43.2316 33.2788 41.0862 33.9944 39.2687 35.233C37.4513 33.9944 35.306 33.2788 33.0091 33.2788C26.461 33.2788 21.1448 39.0954 21.1448 46.2598C21.1448 50.0716 22.6498 53.5019 25.0444 55.8776C26.7814 57.8813 29.6104 58.8682 32.1872 59.4557C32.4921 59.4694 32.7969 59.4825 33.1013 59.4951Z" fill="#C6D1D5"/>
<path fill-rule="evenodd" clip-rule="evenodd" d="M33.1012 59.4951C32.7969 59.4825 32.4921 59.4694 32.1871 59.4556C29.6103 58.8682 26.7813 57.8812 25.0443 55.8776C22.6496 53.5019 21.1448 50.0717 21.1448 46.2598C21.1448 39.0954 26.461 33.2788 33.009 33.2788C35.306 33.2788 37.4512 33.9945 39.2687 35.2329C41.0862 33.9945 43.2314 33.2788 45.5283 33.2788C52.0764 33.2788 57.3926 39.0954 57.3926 46.2598C57.3926 50.0717 55.8877 53.5019 53.4931 55.8776C51.756 57.8812 48.9271 58.8682 46.3503 59.4556C46.0453 59.4694 45.7405 59.4825 45.4361 59.4951C43.891 59.6401 41.7274 59.6858 39.2687 59.6625C36.81 59.6858 34.6463 59.6401 33.1012 59.4951Z" fill="#00005C"/>
<path fill-rule="evenodd" clip-rule="evenodd" d="M28.5201 58.2958C28.5006 58.6815 28.4289 59.4148 28.1695 60.1488C27.898 60.9174 27.6263 61.3181 27.5125 61.4653C27.3305 61.3749 27.1585 61.2895 26.9922 61.2045C27.0031 61.1848 27.0164 61.1662 27.0324 61.1488C27.0324 61.1488 27.323 60.8219 27.6273 59.9608C27.9552 59.0327 27.9534 58.106 27.9527 58.0322C28.1393 58.1242 28.3286 58.212 28.5201 58.2958Z" fill="#81A2ED"/>
<path fill-rule="evenodd" clip-rule="evenodd" d="M50.0764 58.2958C50.0959 58.6815 50.1675 59.4148 50.4269 60.1488C50.6984 60.9174 50.9701 61.3181 51.084 61.4653C51.2659 61.3749 51.438 61.2895 51.6042 61.2045C51.5933 61.1848 51.58 61.1662 51.5641 61.1488C51.5641 61.1488 51.2734 60.8219 50.9692 59.9608C50.6413 59.0327 50.643 58.106 50.6437 58.0322C50.4571 58.1242 50.2678 58.212 50.0764 58.2958Z" fill="#81A2ED"/>
<g filter="url(#filter0_d_8777_16613)">
<path fill-rule="evenodd" clip-rule="evenodd" d="M37.5174 15.4404C38.084 15.3339 38.7203 15.3162 39.3016 15.3287C39.883 15.3162 40.5193 15.3339 41.0859 15.4404C43.5159 15.6809 47.1593 16.345 49.7736 17.4169C52.7812 18.6501 55.9201 20.3529 58.1249 22.7599C60.3298 25.167 63.2316 27.9316 63.0027 31.8593C62.9407 32.9215 62.1778 34.0225 61.6979 34.7778C60.6085 36.4928 58.7581 39.1452 56.2942 40.4477C51.2881 43.0942 47.9209 43.4562 42.973 43.793C41.903 43.8658 40.5831 43.9428 39.3016 43.8748C38.0202 43.9428 36.7003 43.8658 35.6303 43.793C30.6824 43.4562 27.3152 43.0942 22.3091 40.4477C19.8452 39.1452 17.9948 36.4928 16.9054 34.7778C16.4255 34.0225 15.6626 32.9215 15.6006 31.8593C15.3717 27.9316 18.2735 25.167 20.4784 22.7599C22.6832 20.3529 25.8221 18.6501 28.8297 17.4169C31.444 16.345 35.0875 15.6809 37.5174 15.4404Z" fill="#EAF2FB"/>
</g>
<path fill-rule="evenodd" clip-rule="evenodd" d="M18.3242 36.8268L18.3254 36.813C18.3254 36.813 26.6344 29.7729 39.4956 29.7729C51.5603 29.7729 59.26 36.1782 60.1675 36.9716C59.1415 38.2851 57.8384 39.6315 56.2944 40.4477C51.2884 43.0941 47.9212 43.4561 42.9733 43.7929C41.9032 43.8658 40.5834 43.9427 39.3019 43.8747C38.0205 43.9427 36.7006 43.8658 35.6305 43.7929C30.6827 43.4561 27.3154 43.0941 22.3094 40.4477C20.7085 39.6014 19.3666 38.1854 18.3242 36.8268Z" fill="#030552"/>
<path fill-rule="evenodd" clip-rule="evenodd" d="M20.423 53.9099C16.9362 53.1393 15.5552 50.5871 15.5095 46.7525C15.4738 43.7527 16.8797 41.1087 19.05 39.6448C18.5333 42.595 18.2599 46.0894 19.1665 49.9728C19.5308 51.5334 19.957 52.8232 20.423 53.9099Z" fill="#3A414E"/>
<path fill-rule="evenodd" clip-rule="evenodd" d="M58.0069 53.9099C61.4938 53.1393 62.8747 50.5871 62.9204 46.7525C62.9562 43.7527 61.5502 41.1087 59.3799 39.6448C59.8966 42.595 60.1701 46.0894 59.2634 49.9728C58.8991 51.5334 58.4729 52.8232 58.0069 53.9099Z" fill="#3A414E"/>
<path fill-rule="evenodd" clip-rule="evenodd" d="M18.1172 52.9575C17.8021 51.9887 17.222 49.949 17.013 47.5177C16.7692 44.6815 17.0614 42.4521 17.271 41.3236C17.5096 41.0138 17.769 40.7238 18.0473 40.4562C18.0822 40.5281 18.0922 40.6133 18.0691 40.6966C18.0691 40.6966 17.3118 43.4506 17.6564 47.4598C17.9402 50.7603 18.9274 53.3167 18.9274 53.3167C18.9412 53.3524 18.9486 53.3892 18.9501 53.4255C18.6509 53.2881 18.3736 53.1319 18.1172 52.9575Z" fill="#427AFF"/>
<path fill-rule="evenodd" clip-rule="evenodd" d="M60.3127 52.9575C60.6278 51.9887 61.2079 49.949 61.4169 47.5177C61.6607 44.6815 61.3686 42.4521 61.1589 41.3236C60.9203 41.0138 60.6609 40.7238 60.3827 40.4562C60.3477 40.5281 60.3378 40.6133 60.3608 40.6966C60.3608 40.6966 61.1181 43.4506 60.7735 47.4598C60.4898 50.7603 59.5025 53.3167 59.5025 53.3167C59.4887 53.3524 59.4814 53.3892 59.4798 53.4255C59.779 53.2881 60.0563 53.1319 60.3127 52.9575Z" fill="#427AFF"/>
<path fill-rule="evenodd" clip-rule="evenodd" d="M20.412 38.2214C20.0687 38.4729 19.897 38.6228 19.897 38.6228L19.0645 37.7293C19.0645 37.7293 27.1527 30.7358 39.5313 30.7358C51.1962 30.7358 59.559 37.7095 59.559 37.7095L58.709 38.6689C58.709 38.6689 58.4498 38.3777 58.1771 38.1795C56.6753 39.2543 53.8676 41.2338 51.4693 42.0819C48.9905 42.9585 46.1464 43.1214 43.4483 43.3352C43.4438 43.3355 43.4392 43.3358 43.4346 43.3359C40.4899 43.3749 39.0532 43.4053 35.0798 43.3876C35.0736 43.3876 35.0673 43.3872 35.0612 43.3866C32.2177 43.1186 28.8327 42.5793 26.3995 41.7247C24.2155 40.9576 21.8113 39.7382 20.4137 38.2234C20.4131 38.2227 20.4125 38.2221 20.412 38.2214ZM57.8231 37.9302C55.7459 36.5081 49.4818 32.8842 39.5844 32.8842C29.1944 32.8842 22.9114 36.4852 20.7484 37.9821C22.1105 39.4378 24.4318 40.6013 26.5371 41.3407C28.9397 42.1845 32.2818 42.7149 35.091 42.9803C39.0507 42.9979 40.4871 42.9675 43.4223 42.9286C46.0826 42.7178 48.8872 42.5625 51.331 41.6982C53.6344 40.8836 56.3185 39.0058 57.8231 37.9302Z" fill="#FCAE28"/>
<path d="M31.5959 50.2943C33.0254 50.065 33.9251 48.3149 33.6055 46.3854C33.2859 44.4559 31.8681 43.0777 30.4386 43.307C29.0091 43.5363 28.1094 45.2863 28.429 47.2158C28.7486 49.1454 30.1665 50.5236 31.5959 50.2943Z" fill="#8BCCE1"/>
<path d="M46.9303 50.2944C45.5008 50.0651 44.6011 48.315 44.9207 46.3856C45.2404 44.4561 46.6583 43.0778 48.0878 43.307C49.5172 43.5363 50.4169 45.2863 50.0973 47.2158C49.7777 49.1453 48.3597 50.5236 46.9303 50.2944Z" fill="#8BCCE1"/>
<path d="M39.3496 29.0195C42.3434 29.0195 44.7703 26.6157 44.7703 23.6504C44.7703 20.6851 42.3434 18.2812 39.3496 18.2812C36.3559 18.2812 33.929 20.6851 33.929 23.6504C33.929 26.6157 36.3559 29.0195 39.3496 29.0195Z" fill="#030552"/>
<path d="M39.2233 24.7544H37.7277L37.4468 25.581H36.5598L38.0087 21.5596H38.9672L40.4049 25.581H39.485L39.2233 24.7544ZM38.9864 24.0614L38.4796 22.4789L37.9563 24.0614H38.9864Z" fill="#FCAE28"/>
<path d="M41.6968 21.5596H40.854V25.581H41.6968V21.5596Z" fill="#FCAE28"/>
<path d="M46.6053 52.7012H31.8359L35.953 56.5515C37.572 58.0657 40.0647 58.1385 41.7693 56.7214L46.6053 52.7012Z" fill="#8BCCE1"/>
<rect x="65.3369" y="29.3169" width="30.5961" height="24.3129" rx="7.79952" fill="#FC744A"/>
<path d="M89.9708 47.3597H86.583V34.3599H89.9708V47.3597Z" fill="white"/>
<path d="M80.3831 47.3597L79.5523 44.5038H75.2045L74.346 47.3597H70.9858L75.4537 34.3599H79.5985L84.0755 47.3597H80.3831ZM77.3091 37.2877L75.8506 42.1255H78.9154L77.4845 37.2877H77.3091Z" fill="white"/>
<path d="M95.8615 19.0282C95.8473 19.0962 95.7489 19.0962 95.7346 19.0282C95.4788 17.8115 94.4677 16.8535 93.1852 16.6095C93.1136 16.596 93.1136 16.5027 93.1852 16.4892C94.4677 16.2465 95.4774 15.2872 95.7346 14.0705C95.7489 14.0025 95.8473 14.0025 95.8615 14.0705C96.1173 15.2872 97.1285 16.2452 98.4109 16.4892C98.4825 16.5027 98.4825 16.596 98.4109 16.6095C97.1285 16.8523 96.1187 17.8115 95.8615 19.0282Z" fill="#00005C"/>
<path d="M100.773 34.3939C100.818 34.6097 101.131 34.6097 101.176 34.3939C101.993 30.5291 105.2 27.482 109.274 26.711C109.502 26.6681 109.502 26.3716 109.274 26.3287C105.2 25.5537 101.989 22.5106 101.176 18.6458C101.131 18.43 100.818 18.43 100.773 18.6458C99.956 22.5106 96.7484 25.5577 92.6748 26.3287C92.4472 26.3716 92.4472 26.6681 92.6748 26.711C96.7484 27.4861 99.9602 30.5291 100.773 34.3939Z" fill="#00005C"/>
<path d="M89.5988 25.2634C89.6172 25.3513 89.7445 25.3513 89.7629 25.2634C90.0958 23.6889 91.4025 22.4474 93.0622 22.1333C93.1549 22.1158 93.1549 21.9951 93.0622 21.9776C91.4025 21.6618 90.094 20.422 89.7629 18.8475C89.7445 18.7596 89.6172 18.7596 89.5988 18.8475C89.2659 20.422 87.9591 21.6635 86.2995 21.9776C86.2068 21.9951 86.2068 22.1158 86.2995 22.1333C87.9591 22.4491 89.2677 23.6889 89.5988 25.2634Z" fill="#00005C"/>
<defs>
<filter id="filter0_d_8777_16613" x="13.9751" y="13.7124" width="50.6531" height="31.8013" filterUnits="userSpaceOnUse" color-interpolation-filters="sRGB">
<feFlood flood-opacity="0" result="BackgroundImageFix"/>
<feColorMatrix in="SourceAlpha" type="matrix" values="0 0 0 0 0 0 0 0 0 0 0 0 0 0 0 0 0 0 127 0" result="hardAlpha"/>
<feOffset/>
<feGaussianBlur stdDeviation="0.806407"/>
<feComposite in2="hardAlpha" operator="out"/>
<feColorMatrix type="matrix" values="0 0 0 0 0 0 0 0 0 0 0 0 0 0 0 0 0 0 0.78 0"/>
<feBlend mode="normal" in2="BackgroundImageFix" result="effect1_dropShadow_8777_16613"/>
<feBlend mode="normal" in="SourceGraphic" in2="effect1_dropShadow_8777_16613" result="shape"/>
</filter>
<linearGradient id="paint0_linear_8777_16613" x1="39.8007" y1="0.23584" x2="39.8007" y2="79.1659" gradientUnits="userSpaceOnUse">
<stop stop-color="#4C4191"/>
<stop offset="1" stop-color="#5364BD"/>
</linearGradient>
</defs>
</svg>
