<svg width="205" height="41" viewBox="0 0 205 41" fill="none" xmlns="http://www.w3.org/2000/svg">
<g filter="url(#filter0_d_12_57162)">
<path d="M23.5824 12.9304C23.4697 12.5128 23.304 12.1449 23.0852 11.8267C22.8665 11.5019 22.598 11.2268 22.2798 11.0014C21.9616 10.776 21.5971 10.607 21.1861 10.4943C20.7751 10.375 20.3243 10.3153 19.8338 10.3153C18.8461 10.3153 17.991 10.554 17.2685 11.0312C16.5526 11.5085 15.9991 12.2045 15.608 13.1193C15.2169 14.0275 15.0213 15.1312 15.0213 16.4304C15.0213 17.7363 15.2102 18.8499 15.5881 19.7713C15.9659 20.6927 16.5128 21.3954 17.2287 21.8793C17.9446 22.3632 18.813 22.6051 19.8338 22.6051C20.7353 22.6051 21.4976 22.4593 22.1207 22.1676C22.7505 21.8693 23.2277 21.4484 23.5526 20.9048C23.8774 20.3613 24.0398 19.7216 24.0398 18.9858L24.9545 19.0952H20.0028V15.5057H28.7827V18.2003C28.7827 20.0232 28.3949 21.5843 27.6193 22.8835C26.8504 24.1828 25.7898 25.1804 24.4375 25.8764C23.0919 26.5724 21.544 26.9205 19.794 26.9205C17.8518 26.9205 16.1449 26.4995 14.6733 25.6577C13.2017 24.8158 12.0549 23.616 11.233 22.0582C10.411 20.4938 10 18.6378 10 16.4901C10 14.8196 10.2486 13.3381 10.7457 12.0455C11.2429 10.7462 11.9356 9.64583 12.8239 8.74432C13.7188 7.8428 14.7528 7.16004 15.9261 6.69602C17.1061 6.23201 18.3755 6 19.7344 6C20.9143 6 22.0114 6.16903 23.0256 6.5071C24.0464 6.84517 24.9479 7.32244 25.7301 7.93892C26.5189 8.5554 27.1586 9.28788 27.6491 10.1364C28.1397 10.9848 28.4446 11.9162 28.5639 12.9304H23.5824Z" fill="white"/>
<path d="M57.9038 16.4602C57.9038 18.7008 57.4729 20.5999 56.6111 22.1577C55.7494 23.7154 54.5827 24.8987 53.1111 25.7074C51.6462 26.5161 50.0023 26.9205 48.1793 26.9205C46.3498 26.9205 44.7025 26.5128 43.2376 25.6974C41.7726 24.8821 40.6093 23.6989 39.7475 22.1477C38.8924 20.59 38.4648 18.6941 38.4648 16.4602C38.4648 14.2197 38.8924 12.3205 39.7475 10.7628C40.6093 9.20502 41.7726 8.02178 43.2376 7.21307C44.7025 6.40436 46.3498 6 48.1793 6C50.0023 6 51.6462 6.40436 53.1111 7.21307C54.5827 8.02178 55.7494 9.20502 56.6111 10.7628C57.4729 12.3205 57.9038 14.2197 57.9038 16.4602ZM52.8725 16.4602C52.8725 15.1345 52.6836 14.0142 52.3058 13.0994C51.9345 12.1847 51.3976 11.492 50.695 11.0213C49.9989 10.5507 49.1604 10.3153 48.1793 10.3153C47.2049 10.3153 46.3664 10.5507 45.6637 11.0213C44.9611 11.492 44.4208 12.1847 44.043 13.0994C43.6718 14.0142 43.4861 15.1345 43.4861 16.4602C43.4861 17.786 43.6718 18.9062 44.043 19.821C44.4208 20.7358 44.9611 21.4285 45.6637 21.8991C46.3664 22.3698 47.2049 22.6051 48.1793 22.6051C49.1604 22.6051 49.9989 22.3698 50.695 21.8991C51.3976 21.4285 51.9345 20.7358 52.3058 19.821C52.6836 18.9062 52.8725 17.786 52.8725 16.4602Z" fill="white"/>
<path d="M81.141 12.9304C81.0283 12.5128 80.8626 12.1449 80.6438 11.8267C80.4251 11.5019 80.1566 11.2268 79.8384 11.0014C79.5202 10.776 79.1557 10.607 78.7447 10.4943C78.3337 10.375 77.8829 10.3153 77.3924 10.3153C76.4047 10.3153 75.5496 10.554 74.8271 11.0312C74.1111 11.5085 73.5576 12.2045 73.1665 13.1193C72.7755 14.0275 72.5799 15.1312 72.5799 16.4304C72.5799 17.7363 72.7688 18.8499 73.1467 19.7713C73.5245 20.6927 74.0714 21.3954 74.7873 21.8793C75.5032 22.3632 76.3716 22.6051 77.3924 22.6051C78.2939 22.6051 79.0562 22.4593 79.6793 22.1676C80.3091 21.8693 80.7863 21.4484 81.1112 20.9048C81.436 20.3613 81.5984 19.7216 81.5984 18.9858L82.5131 19.0952H77.5614V15.5057H86.3413V18.2003C86.3413 20.0232 85.9535 21.5843 85.1779 22.8835C84.409 24.1828 83.3484 25.1804 81.9961 25.8764C80.6505 26.5724 79.1026 26.9205 77.3526 26.9205C75.4104 26.9205 73.7035 26.4995 72.2319 25.6577C70.7603 24.8158 69.6135 23.616 68.7915 22.0582C67.9696 20.4938 67.5586 18.6378 67.5586 16.4901C67.5586 14.8196 67.8072 13.3381 68.3043 12.0455C68.8015 10.7462 69.4942 9.64583 70.3825 8.74432C71.2773 7.8428 72.3114 7.16004 73.4847 6.69602C74.6647 6.23201 75.9341 6 77.293 6C78.4729 6 79.57 6.16903 80.5842 6.5071C81.605 6.84517 82.5065 7.32244 83.2887 7.93892C84.0775 8.5554 84.7172 9.28788 85.2077 10.1364C85.6983 10.9848 86.0032 11.9162 86.1225 12.9304H81.141Z" fill="white"/>
<path d="M115.462 16.4602C115.462 18.7008 115.031 20.5999 114.17 22.1577C113.308 23.7154 112.141 24.8987 110.67 25.7074C109.205 26.5161 107.561 26.9205 105.738 26.9205C103.908 26.9205 102.261 26.5128 100.796 25.6974C99.3312 24.8821 98.1678 23.6989 97.3061 22.1477C96.451 20.59 96.0234 18.6941 96.0234 16.4602C96.0234 14.2197 96.451 12.3205 97.3061 10.7628C98.1678 9.20502 99.3312 8.02178 100.796 7.21307C102.261 6.40436 103.908 6 105.738 6C107.561 6 109.205 6.40436 110.67 7.21307C112.141 8.02178 113.308 9.20502 114.17 10.7628C115.031 12.3205 115.462 14.2197 115.462 16.4602ZM110.431 16.4602C110.431 15.1345 110.242 14.0142 109.864 13.0994C109.493 12.1847 108.956 11.492 108.254 11.0213C107.558 10.5507 106.719 10.3153 105.738 10.3153C104.763 10.3153 103.925 10.5507 103.222 11.0213C102.52 11.492 101.979 12.1847 101.602 13.0994C101.23 14.0142 101.045 15.1345 101.045 16.4602C101.045 17.786 101.23 18.9062 101.602 19.821C101.979 20.7358 102.52 21.4285 103.222 21.8991C103.925 22.3698 104.763 22.6051 105.738 22.6051C106.719 22.6051 107.558 22.3698 108.254 21.8991C108.956 21.4285 109.493 20.7358 109.864 19.821C110.242 18.9062 110.431 17.786 110.431 16.4602Z" fill="white"/>
<path d="M125.336 26.642V6.27841H133.748C135.272 6.27841 136.588 6.5535 137.695 7.10369C138.809 7.64725 139.667 8.42945 140.271 9.45028C140.874 10.4645 141.175 11.6676 141.175 13.0597C141.175 14.4716 140.867 15.6714 140.251 16.6591C139.634 17.6402 138.759 18.3892 137.626 18.9063C136.492 19.4167 135.15 19.6719 133.599 19.6719H128.279V15.794H132.684C133.426 15.794 134.046 15.6979 134.543 15.5057C135.047 15.3068 135.428 15.0085 135.687 14.6108C135.945 14.2064 136.075 13.6894 136.075 13.0597C136.075 12.4299 135.945 11.9096 135.687 11.4986C135.428 11.081 135.047 10.7694 134.543 10.5639C134.04 10.3518 133.42 10.2457 132.684 10.2457H130.258V26.642H125.336ZM136.8 17.3352L141.871 26.642H136.502L131.531 17.3352H136.8Z" fill="white"/>
<path d="M150.875 26.642V6.27841H165.074V10.2756H155.797V14.4517H164.348V18.4588H155.797V22.6449H165.074V26.642H150.875Z" fill="white"/>
<path d="M179.78 6.27841L184.334 21.1932H184.503L189.057 6.27841H194.565L187.695 26.642H181.142L174.271 6.27841H179.78Z" fill="white"/>
</g>
<defs>
<filter id="filter0_d_12_57162" x="0" y="0" width="204.565" height="40.9209" filterUnits="userSpaceOnUse" color-interpolation-filters="sRGB">
<feFlood flood-opacity="0" result="BackgroundImageFix"/>
<feColorMatrix in="SourceAlpha" type="matrix" values="0 0 0 0 0 0 0 0 0 0 0 0 0 0 0 0 0 0 127 0" result="hardAlpha"/>
<feOffset dy="4"/>
<feGaussianBlur stdDeviation="5"/>
<feComposite in2="hardAlpha" operator="out"/>
<feColorMatrix type="matrix" values="0 0 0 0 0 0 0 0 0 0 0 0 0 0 0 0 0 0 0.25 0"/>
<feBlend mode="normal" in2="BackgroundImageFix" result="effect1_dropShadow_12_57162"/>
<feBlend mode="normal" in="SourceGraphic" in2="effect1_dropShadow_12_57162" result="shape"/>
</filter>
</defs>
</svg>
