<svg width="56" height="57" viewBox="0 0 56 57" fill="none" xmlns="http://www.w3.org/2000/svg">
<path d="M27.8879 13.0254C19.99 13.0254 20.4831 16.4504 20.4831 16.4504L20.4919 19.9988H28.0288V21.0642H17.4984C17.4984 21.0642 12.4445 20.491 12.4445 28.46C12.4445 36.4292 16.8556 36.1465 16.8556 36.1465H19.4882V32.4485C19.4882 32.4485 19.3463 28.0374 23.8289 28.0374H31.3042C31.3042 28.0374 35.504 28.1052 35.504 23.9784V17.1549C35.504 17.1549 36.1418 13.0254 27.8879 13.0254ZM23.7321 15.4116C23.9102 15.4115 24.0866 15.4464 24.2512 15.5145C24.4157 15.5826 24.5653 15.6825 24.6912 15.8084C24.8171 15.9343 24.917 16.0839 24.9851 16.2484C25.0532 16.413 25.0881 16.5894 25.088 16.7675C25.0881 16.9456 25.0532 17.122 24.9851 17.2866C24.917 17.4511 24.8171 17.6007 24.6912 17.7266C24.5653 17.8526 24.4157 17.9524 24.2512 18.0205C24.0866 18.0886 23.9102 18.1235 23.7321 18.1234C23.554 18.1235 23.3776 18.0886 23.213 18.0205C23.0485 17.9524 22.8989 17.8526 22.773 17.7266C22.6471 17.6007 22.5472 17.4511 22.4791 17.2866C22.411 17.122 22.3761 16.9456 22.3762 16.7675C22.3761 16.5894 22.411 16.413 22.4791 16.2484C22.5472 16.0839 22.6471 15.9343 22.773 15.8084C22.8989 15.6825 23.0485 15.5826 23.213 15.5145C23.3776 15.4464 23.554 15.4115 23.7321 15.4116V15.4116Z" fill="#0891B2"/>
<path d="M28.1122 43.975C36.0102 43.975 35.517 40.5499 35.517 40.5499L35.5083 37.0016H27.9713V35.9363H38.5017C38.5017 35.9363 43.5556 36.5095 43.5556 28.5403C43.5556 20.5712 39.1444 20.8538 39.1444 20.8538H36.5118V24.5517C36.5118 24.5517 36.6538 28.9629 32.1711 28.9629H24.6959C24.6959 28.9629 20.496 28.895 20.496 33.022V39.8456C20.496 39.8456 19.8583 43.975 28.1121 43.975H28.1122ZM32.2681 41.589C32.0899 41.5891 31.9136 41.5542 31.749 41.4861C31.5844 41.418 31.4349 41.3181 31.3089 41.1922C31.183 41.0663 31.0831 40.9167 31.0151 40.7522C30.947 40.5876 30.912 40.4112 30.9122 40.2331C30.912 40.055 30.9469 39.8786 31.015 39.714C31.0831 39.5494 31.183 39.3999 31.3089 39.2739C31.4348 39.148 31.5844 39.0481 31.749 38.98C31.9135 38.9119 32.0899 38.8769 32.2681 38.8771C32.4462 38.8769 32.6225 38.9119 32.7871 38.98C32.9517 39.0481 33.1012 39.1479 33.2272 39.2739C33.3531 39.3998 33.453 39.5493 33.521 39.7139C33.5891 39.8785 33.6241 40.0549 33.6239 40.233C33.6241 40.4111 33.5891 40.5875 33.521 40.752C33.453 40.9166 33.3531 41.0661 33.2272 41.1921C33.1012 41.318 32.9517 41.4179 32.7871 41.486C32.6225 41.554 32.4462 41.589 32.2681 41.5888V41.589Z" fill="#FACC15"/>
</svg>
