<svg width="57" height="57" viewBox="0 0 57 57" fill="none" xmlns="http://www.w3.org/2000/svg">
<path d="M42.2161 12.9443L39.7169 40.9411L28.4832 44.0554L17.2804 40.9455L14.7839 12.9443H42.2161Z" fill="#264DE4"/>
<path d="M37.5774 39.1579L39.7131 15.2334H28.5V41.6745L37.5774 39.1579Z" fill="#2965F1"/>
<path d="M20.507 25.6191L20.8148 29.0533H28.5V25.6191H20.507Z" fill="#EBEBEB"/>
<path d="M28.5 18.668H28.4881H19.8885L20.2007 22.1022H28.5V18.668Z" fill="#EBEBEB"/>
<path d="M28.5 38.1112V34.5382L28.4849 34.5422L24.6602 33.5095L24.4157 30.7705H22.5572H20.9683L21.4494 36.1627L28.4841 38.1156L28.5 38.1112Z" fill="#EBEBEB"/>
<path d="M32.717 29.0531L32.3183 33.507L28.4881 34.5408V38.1137L35.5284 36.1625L35.5801 35.5823L36.3871 26.5411L36.4709 25.6189L37.0909 18.668H28.4881V22.1022H33.3273L33.0148 25.6189H28.4881V29.0531H32.717Z" fill="#1E2235"/>
</svg>
