<svg width="57" height="57" viewBox="0 0 57 57" fill="none" xmlns="http://www.w3.org/2000/svg">
<path d="M13.2405 23.8436C13.2405 23.8436 12.4827 23.2974 13.392 22.5681L15.5105 20.6737C15.5105 20.6737 16.1167 20.0359 16.7577 20.5916L36.3076 35.393V42.4906C36.3076 42.4906 36.2982 43.6051 34.8679 43.482L13.2405 23.8436Z" fill="#2489CA"/>
<path d="M18.2796 28.418L13.2405 32.9992C13.2405 32.9992 12.7227 33.3844 13.2405 34.0727L15.5801 36.2007C15.5801 36.2007 16.1357 36.7974 16.9566 36.1186L22.2988 32.0678L18.2796 28.418Z" fill="#1070B3"/>
<path d="M27.1262 28.4565L36.3676 21.4L36.3076 14.3402C36.3076 14.3402 35.913 12.7995 34.5964 13.6014L22.2987 24.7941L27.1262 28.4565Z" fill="#0877B9"/>
<path d="M34.868 43.4911C35.4047 44.0405 36.0551 43.8605 36.0551 43.8605L43.2569 40.3117C44.1788 39.6834 44.0494 38.9035 44.0494 38.9035V17.7117C44.0494 16.7803 43.0959 16.4583 43.0959 16.4583L36.8539 13.4494C35.4899 12.6064 34.5964 13.6009 34.5964 13.6009C34.5964 13.6009 35.7457 12.7737 36.3077 14.3398V42.3608C36.3077 42.5534 36.2666 42.7428 36.1846 42.9133C36.0204 43.2448 35.6636 43.5542 34.808 43.4248L34.868 43.4911Z" fill="#3C99D4"/>
</svg>
