<svg width="56" height="57" viewBox="0 0 56 57" fill="none" xmlns="http://www.w3.org/2000/svg">
<path d="M27.9027 13.0293L28.7329 14.5886C28.9195 14.8764 29.1217 15.1311 29.3599 15.3683C30.0582 16.0579 30.7091 16.7938 31.3081 17.5712C32.7148 19.4183 33.6636 21.4695 34.3412 23.6879C34.7476 25.0431 34.9683 26.4333 34.9848 27.839C35.0528 32.0416 33.6121 35.6502 30.7073 38.6493C30.2348 39.1249 29.7244 39.5612 29.181 39.954C28.8933 39.954 28.7572 39.7333 28.6386 39.5301C28.4226 39.1533 28.2788 38.7396 28.2147 38.31C28.1126 37.8016 28.0456 37.2932 28.0786 36.7682V36.531C28.0553 36.4805 27.8016 13.1489 27.9027 13.0293V13.0293Z" fill="#599636"/>
<path d="M27.9027 12.9778C27.8686 12.9097 27.8346 12.9613 27.8006 12.9943C27.8171 13.3346 27.6985 13.6379 27.5128 13.9276C27.3087 14.2153 27.0384 14.436 26.7672 14.6732C25.2603 15.9778 24.0743 17.5537 23.1245 19.3162C21.8607 21.6882 21.2094 24.2304 21.0247 26.9068C20.9401 27.8721 21.3299 31.2785 21.6342 32.2614C22.4644 34.8706 23.9557 37.057 25.8874 38.9546C26.3618 39.4115 26.8693 39.8354 27.3942 40.2427C27.5468 40.2427 27.5634 40.1066 27.5984 40.0055C27.6653 39.7892 27.7163 39.5682 27.751 39.3444L28.0913 36.8032L27.9027 12.9778Z" fill="#6CAC48"/>
<path d="M28.7329 40.9866C28.7669 40.5978 28.9536 40.275 29.1567 39.9533C28.9526 39.8687 28.8009 39.7005 28.6823 39.5129C28.5801 39.3352 28.4954 39.148 28.4296 38.9539C28.1924 38.2423 28.1418 37.4957 28.0738 36.7685V36.3281C27.9892 36.3962 27.9717 36.9717 27.9717 37.0572C27.9222 37.8258 27.8202 38.5901 27.6664 39.3447C27.6159 39.6499 27.5819 39.9542 27.3942 40.2255C27.3942 40.2595 27.3942 40.2935 27.4108 40.3441C27.716 41.2423 27.7996 42.1571 27.8511 43.0894V43.4296C27.8511 43.836 27.8346 43.7505 28.1719 43.8866C28.3081 43.9371 28.4597 43.9546 28.5958 44.0557C28.6979 44.0557 28.7144 43.9711 28.7144 43.9031L28.6639 43.3441V41.7848C28.6473 41.5126 28.6979 41.2423 28.7319 40.9876L28.7329 40.9866Z" fill="#C2BFBF"/>
</svg>
