<svg width="57" height="57" viewBox="0 0 57 57" fill="none" xmlns="http://www.w3.org/2000/svg">
<path d="M43.4688 27.1137L29.8854 13.531C29.1036 12.7488 27.8349 12.7488 27.0521 13.531L24.2315 16.3517L27.8096 19.9298C28.6411 19.6489 29.5946 19.8374 30.2574 20.5002C30.9234 21.1672 31.1106 22.1289 30.8228 22.9631L34.2711 26.4115C35.1054 26.1241 36.068 26.3101 36.7344 26.9775C37.6656 27.9084 37.6656 29.4172 36.7344 30.3487C35.8029 31.2803 34.2941 31.2803 33.3621 30.3487C32.6616 29.6474 32.4886 28.6187 32.8432 27.7557L29.6273 24.5399L29.6269 33.0027C29.8601 33.118 30.073 33.2702 30.2574 33.4536C31.1887 34.3845 31.1887 35.8934 30.2574 36.8256C29.3259 37.7568 27.8164 37.7568 26.8862 36.8256C25.955 35.8934 25.955 34.3846 26.8862 33.4537C27.1094 33.2304 27.3746 33.0536 27.6666 32.9334V24.3917C27.3742 24.2724 27.1088 24.0955 26.8862 23.8715C26.1807 23.1669 26.011 22.1316 26.3725 21.2652L22.8453 17.7376L13.5314 27.0509C12.7488 27.8339 12.7488 29.1028 13.5314 29.8852L27.1151 43.4681C27.8971 44.2505 29.1656 44.2505 29.9486 43.4681L43.4687 29.9482C44.2511 29.1656 44.2511 27.896 43.4687 27.1137" fill="#EF4444"/>
</svg>
