<svg width="57" height="57" viewBox="0 0 57 57" fill="none" xmlns="http://www.w3.org/2000/svg">
<path d="M23.3148 44.0559C26.177 44.0559 28.5 41.7329 28.5 38.8707V33.6855H23.3148C20.4526 33.6855 18.1296 36.0085 18.1296 38.8707C18.1296 41.7329 20.4526 44.0559 23.3148 44.0559Z" fill="#0ACF83"/>
<path d="M18.1296 28.4996C18.1296 25.6374 20.4526 23.3145 23.3148 23.3145H28.5V33.6848H23.3148C20.4526 33.6848 18.1296 31.3618 18.1296 28.4996Z" fill="#A259FF"/>
<path d="M18.1296 18.1295C18.1296 15.2673 20.4526 12.9443 23.3148 12.9443H28.5V23.3147H23.3148C20.4526 23.3147 18.1296 20.9917 18.1296 18.1295Z" fill="#F24E1E"/>
<path d="M28.5 12.9443H33.6852C36.5474 12.9443 38.8704 15.2673 38.8704 18.1295C38.8704 20.9917 36.5474 23.3147 33.6852 23.3147H28.5V12.9443Z" fill="#FF7262"/>
<path d="M38.8704 28.4996C38.8704 31.3618 36.5474 33.6848 33.6852 33.6848C30.823 33.6848 28.5 31.3618 28.5 28.4996C28.5 25.6374 30.823 23.3145 33.6852 23.3145C36.5474 23.3145 38.8704 25.6374 38.8704 28.4996Z" fill="#1ABCFE"/>
</svg>
