<svg width="56" height="57" viewBox="0 0 56 57" fill="none" xmlns="http://www.w3.org/2000/svg">
<path d="M43.2487 25.7655C43.1644 25.6985 42.3767 25.1038 40.7155 25.1038C40.2769 25.1057 39.8392 25.1433 39.4067 25.2163C39.0852 23.0126 37.2633 21.9382 37.1816 21.89L36.7356 21.6328L36.4422 22.0562C36.0748 22.6248 35.8066 23.2517 35.6491 23.9102C35.3517 25.1681 35.5326 26.3496 36.1716 27.3597C35.4 27.7897 34.1622 27.8955 33.9117 27.9049H13.4183C12.883 27.9056 12.4487 28.3382 12.4458 28.8734C12.4219 30.6688 12.726 32.4534 13.3433 34.1394C14.0493 35.9908 15.0995 37.3545 16.4659 38.1891C17.9971 39.1268 20.4848 39.6626 23.3046 39.6626C24.5785 39.6666 25.85 39.5513 27.1025 39.3184C28.8434 38.9987 30.5187 38.3902 32.059 37.5179C33.3282 36.7829 34.4704 35.848 35.4415 34.7489C37.0651 32.911 38.0324 30.864 38.7517 29.0449H39.0384C40.816 29.0449 41.9092 28.3335 42.512 27.7374C42.9126 27.3572 43.2254 26.8941 43.4283 26.3804L43.5556 26.008L43.2487 25.7655Z" fill="#2496ED"/>
<path d="M15.3179 27.305H18.0641C18.1965 27.305 18.3039 27.1976 18.3039 27.0652V24.6191C18.3046 24.4866 18.1979 24.3787 18.0654 24.3779C18.065 24.3779 18.0645 24.3779 18.0641 24.3779H15.3179C15.1855 24.3779 15.0781 24.4853 15.0781 24.6177V24.6191V27.0652C15.0781 27.1976 15.1855 27.305 15.3179 27.305V27.305Z" fill="#2496ED"/>
<path d="M19.1023 27.305H21.8485C21.981 27.305 22.0883 27.1976 22.0883 27.0652V24.6191C22.089 24.4866 21.9823 24.3787 21.8498 24.3779C21.8494 24.3779 21.8489 24.3779 21.8485 24.3779H19.1023C18.9691 24.3779 18.8611 24.4859 18.8611 24.6191V27.0652C18.8619 27.1978 18.9696 27.305 19.1023 27.305" fill="#2496ED"/>
<path d="M22.9443 27.305H25.6905C25.8229 27.305 25.9303 27.1976 25.9303 27.0652V24.6191C25.931 24.4866 25.8242 24.3787 25.6918 24.3779C25.6914 24.3779 25.6909 24.3779 25.6904 24.3779H22.9442C22.8118 24.3779 22.7045 24.4853 22.7045 24.6177V24.6191V27.0652C22.7045 27.1976 22.8119 27.305 22.9443 27.305V27.305Z" fill="#2496ED"/>
<path d="M26.7408 27.305H29.4869C29.6196 27.305 29.7273 27.1979 29.7281 27.0652V24.6191C29.7281 24.4859 29.6201 24.3779 29.4869 24.3779H26.7408C26.6083 24.3779 26.501 24.4853 26.501 24.6177V24.6191V27.0652C26.501 27.1976 26.6083 27.305 26.7408 27.305V27.305Z" fill="#2496ED"/>
<path d="M19.1023 23.7854H21.8485C21.9811 23.7847 22.0882 23.6769 22.0882 23.5443V21.0982C22.0882 20.9657 21.9809 20.8584 21.8485 20.8584H19.1023C18.9696 20.8584 18.8619 20.9655 18.8611 21.0982V23.5443C18.8619 23.6772 18.9694 23.7847 19.1023 23.7854Z" fill="#2496ED"/>
<path d="M22.9442 23.7854H25.6904C25.8231 23.7847 25.9302 23.6769 25.9302 23.5443V21.0982C25.9302 20.9657 25.8228 20.8584 25.6904 20.8584H22.9442C22.8118 20.8584 22.7045 20.9658 22.7045 21.0982V23.5443C22.7045 23.6769 22.8116 23.7847 22.9442 23.7854Z" fill="#2496ED"/>
<path d="M26.7408 23.7854H29.4869C29.6198 23.7847 29.7273 23.6772 29.7281 23.5443V21.0982C29.7273 20.9655 29.6196 20.8584 29.4869 20.8584H26.7408C26.6083 20.8584 26.501 20.9658 26.501 21.0982V23.5443C26.501 23.6769 26.6081 23.7847 26.7408 23.7854Z" fill="#2496ED"/>
<path d="M26.7408 20.265H29.4869C29.6196 20.265 29.7273 20.1578 29.7281 20.0252V17.5777C29.7273 17.445 29.6196 17.3379 29.4869 17.3379H26.7408C26.6083 17.3379 26.501 17.4452 26.501 17.5777V20.0251C26.501 20.1576 26.6083 20.265 26.7408 20.265Z" fill="#2496ED"/>
<path d="M30.5706 27.305H33.3168C33.4495 27.305 33.5572 27.1979 33.558 27.0652V24.6191C33.558 24.4859 33.45 24.3779 33.3168 24.3779H30.5706C30.4382 24.3779 30.3309 24.4853 30.3309 24.6177V24.6191V27.0652C30.3309 27.1976 30.4382 27.305 30.5706 27.305" fill="#2496ED"/>
</svg>
