<svg width="56" height="57" viewBox="0 0 56 57" fill="none" xmlns="http://www.w3.org/2000/svg">
<path d="M13.4541 14.5118C13.3086 14.5099 13.1645 14.5399 13.0318 14.5997C12.8992 14.6594 12.7812 14.7475 12.6862 14.8577C12.5912 14.9679 12.5215 15.0976 12.482 15.2376C12.4424 15.3777 12.434 15.5246 12.4573 15.6683L16.6888 41.3558C16.7415 41.6702 16.9033 41.9559 17.1458 42.1628C17.3882 42.3697 17.6958 42.4846 18.0146 42.4873H38.3145C38.5534 42.4903 38.7854 42.4074 38.9684 42.2537C39.1513 42.1001 39.2729 41.8858 39.3111 41.6499L43.5427 15.6732C43.566 15.5296 43.5576 15.3827 43.518 15.2427C43.4784 15.1027 43.4087 14.973 43.3137 14.8628C43.2187 14.7526 43.1007 14.6646 42.9681 14.6048C42.8354 14.5451 42.6913 14.5151 42.5458 14.517L13.4541 14.5118ZM31.272 33.0773H24.7927L23.0384 23.9117H32.842L31.272 33.0773Z" fill="#2684FF"/>
<path d="M42.1713 23.8984H32.8239L31.2551 33.0567H24.7811L17.1368 42.1303C17.3791 42.3398 17.688 42.4563 18.0083 42.4589H38.297C38.5357 42.462 38.7676 42.3792 38.9504 42.2257C39.1333 42.0721 39.2548 41.858 39.293 41.6223L42.1713 23.8984Z" fill="url(#paint0_linear_133_9559)"/>
<defs>
<linearGradient id="paint0_linear_133_9559" x1="44.3325" y1="26.4631" x2="33.5348" y2="41.7947" gradientUnits="userSpaceOnUse">
<stop offset="0.18" stop-color="#0052CC"/>
<stop offset="1" stop-color="#2684FF"/>
</linearGradient>
</defs>
</svg>
