<svg width="56" height="57" viewBox="0 0 56 57" fill="none" xmlns="http://www.w3.org/2000/svg">
<path d="M31.0496 33.0786L23.4196 31.4842C23.3876 31.546 23.3521 31.6058 23.3131 31.6635L30.2592 41.796L30.6782 41.3775L31.8599 34.0288C31.6602 33.9445 31.4829 33.8146 31.3422 33.6496C31.2015 33.4846 31.1013 33.2891 31.0496 33.0785V33.0786ZM28.2662 23.1045C27.9803 23.543 27.4869 23.8332 26.925 23.8332C26.8385 23.8332 26.7544 23.8244 26.6717 23.8113L23.1921 29.2558L32.4886 25.2552C32.4857 25.2177 32.4774 25.1827 32.4774 25.1443C32.4774 25.0661 32.4881 24.9902 32.5007 24.9154L28.2662 23.1046V23.1045ZM28.5189 22.1124L33.0233 24.0383C33.1668 23.9261 33.331 23.8432 33.5065 23.7943L34.2468 19.1909L31.4263 16.3704L28.2516 21.3381C28.4072 21.5683 28.4994 21.8354 28.5189 22.1125V22.1124ZM37.9572 22.9013L35.1305 20.0741L34.5161 23.891C34.6719 23.9693 34.8118 24.0758 34.9288 24.205L37.9572 22.9013V22.9013ZM31.1847 32.0732C31.2953 31.8724 31.4543 31.7023 31.6471 31.5783C31.8399 31.4543 32.0607 31.3803 32.2893 31.363L33.1011 26.3139C33.0374 26.2716 32.9805 26.221 32.9246 26.169L23.5746 30.193C23.5985 30.2907 23.615 30.3903 23.6228 30.4939L31.1847 32.0732V32.0732ZM38.7272 23.6718L35.4567 25.0791L43.5262 28.5291L43.5553 28.4999L38.7272 23.6718ZM32.8828 34.044L31.8999 40.1548L37.6072 34.4475L33.4963 33.589C33.3386 33.7953 33.126 33.953 32.8828 34.044V34.044ZM21.7892 32.4729C21.5826 32.4729 21.3848 32.4375 21.1995 32.3746L19.3037 35.3414L18.5712 34.6094L20.3669 31.7997C20.3224 31.7446 20.2811 31.6871 20.2429 31.6275L16.9899 33.0281L16.2188 32.257L19.7795 30.7243L13.3422 29.3807L12.4617 28.4999L12.7403 28.2214L20.1637 29.7711C20.249 29.6091 20.3583 29.461 20.4879 29.3316L16.8849 24.0762L17.6126 23.3485L21.3769 28.8397C21.512 28.8083 21.6503 28.7921 21.7891 28.7916C21.948 28.7916 22.1021 28.8139 22.2494 28.8518L25.7718 23.3403C25.4851 23.0428 25.3249 22.6456 25.3251 22.2324C25.3251 22.1061 25.3411 21.9836 25.3689 21.8659L20.9745 19.9871L21.7453 19.2162L25.9088 20.9968C26.1199 20.8228 26.3723 20.706 26.6416 20.6577C26.9109 20.6095 27.188 20.6313 27.4465 20.7211L30.6941 15.6383L28.0003 12.9443L12.4447 28.4999L28.0003 44.0554L29.531 42.5247L22.5329 32.3153C22.2987 32.4191 22.0454 32.4728 21.7892 32.4729V32.4729ZM34.0913 26.5315L33.2654 31.6644C33.4097 31.7804 33.5292 31.9242 33.6168 32.0873C33.7044 32.2505 33.7583 32.4295 33.7753 32.6139L38.4628 33.5924L42.7551 29.3001L35.0076 25.9877C34.7859 26.2828 34.4565 26.4784 34.0913 26.5317V26.5315Z" fill="#25C7B7"/>
</svg>
