<svg width="57" height="57" viewBox="0 0 57 57" fill="none" xmlns="http://www.w3.org/2000/svg">
<path d="M12.9445 13.2041H44.0556V43.7967H12.9445V13.2041Z" fill="url(#paint0_linear_133_9554)"/>
<path d="M15.4187 15.6367H41.5815V41.3637H15.4187V15.6367Z" fill="url(#paint1_linear_133_9554)"/>
<path d="M20.4628 21.8262C20.4628 21.8262 22.4298 21.7744 24.049 21.7744C25.6853 21.7744 26.8519 22.1594 27.6352 22.8358C28.3838 23.4751 28.8887 24.5648 28.8887 25.8053C28.8887 27.0458 28.5056 28.0608 27.8091 28.7745C26.9039 29.6955 25.849 30.2407 24.049 30.3161C23.5518 30.3369 23.0915 30.3419 23.0915 30.3419V34.3743H20.4626L20.4628 21.8262V21.8262ZM23.0914 28.1078C23.377 28.1356 23.556 28.1222 23.9793 28.1171C25.3895 28.1002 26.2597 27.2427 26.2597 25.9459C26.2597 24.7809 25.5422 23.8243 24.1884 23.7748C23.6488 23.7551 23.0914 23.7748 23.0914 23.7748V28.1078V28.1078Z" fill="url(#paint2_linear_133_9554)"/>
<path d="M29.8919 31.5656C30.4217 31.8907 31.672 32.3776 32.5242 32.3776C33.3949 32.3776 33.7544 32.0707 33.7544 31.5923C33.7544 31.1133 33.4705 30.6102 32.3912 30.2464C30.4791 29.5952 29.7406 28.8158 29.7598 27.7248C29.7598 25.9628 31.2363 24.6416 33.5271 24.6416C34.6063 24.6416 35.4683 24.9944 36.0358 25.2815V27.3962C35.6189 27.1662 34.4169 26.6526 33.6219 26.6526C32.921 26.6526 32.5237 26.9399 32.5237 27.4182C32.5237 27.8587 32.8836 28.0885 34.0195 28.4909C35.7799 29.1036 36.5183 30.0033 36.537 31.382C36.537 33.1248 35.1936 34.5106 32.5237 34.4265C31.6073 34.3976 30.5922 34.0354 29.8917 33.6529L29.8919 31.5656V31.5656Z" fill="url(#paint3_linear_133_9554)"/>
<defs>
<linearGradient id="paint0_linear_133_9554" x1="20.505" y1="11.6064" x2="32.4309" y2="36.8065" gradientUnits="userSpaceOnUse">
<stop stop-color="#A0CBFF"/>
<stop offset="0.394" stop-color="#A0CBFE"/>
<stop offset="0.583" stop-color="#8EC2FC"/>
<stop offset="0.784" stop-color="#83BCFB"/>
<stop offset="1" stop-color="#7FBAFB"/>
</linearGradient>
<linearGradient id="paint1_linear_133_9554" x1="24.7381" y1="15.9993" x2="31.4789" y2="38.3995" gradientUnits="userSpaceOnUse">
<stop stop-color="#090058"/>
<stop offset="1" stop-color="#070033"/>
</linearGradient>
<linearGradient id="paint2_linear_133_9554" x1="16.7957" y1="12.947" x2="28.7215" y2="38.1468" gradientUnits="userSpaceOnUse">
<stop stop-color="#A0CBFF"/>
<stop offset="0.394" stop-color="#A0CBFE"/>
<stop offset="0.583" stop-color="#8EC2FC"/>
<stop offset="0.784" stop-color="#83BCFB"/>
<stop offset="1" stop-color="#7FBAFB"/>
</linearGradient>
<linearGradient id="paint3_linear_133_9554" x1="23.5887" y1="9.65714" x2="35.5618" y2="34.9568" gradientUnits="userSpaceOnUse">
<stop stop-color="#A0CBFF"/>
<stop offset="0.394" stop-color="#A0CBFE"/>
<stop offset="0.583" stop-color="#8EC2FC"/>
<stop offset="0.784" stop-color="#83BCFB"/>
<stop offset="1" stop-color="#7FBAFB"/>
</linearGradient>
</defs>
</svg>
