<svg width="57" height="57" viewBox="0 0 57 57" fill="none" xmlns="http://www.w3.org/2000/svg">
<path d="M28.5 31.2425C30.0149 31.2425 31.2429 30.0145 31.2429 28.4997C31.2429 26.9848 30.0149 25.7568 28.5 25.7568C26.9852 25.7568 25.7572 26.9848 25.7572 28.4997C25.7572 30.0145 26.9852 31.2425 28.5 31.2425Z" fill="#61DAFB"/>
<path fill-rule="evenodd" clip-rule="evenodd" d="M15.609 27.0543C14.9879 27.615 14.7823 28.105 14.7823 28.4993C14.7823 28.8937 14.9879 29.3837 15.609 29.9444C16.23 30.505 17.1848 31.0557 18.4497 31.5387C20.9727 32.502 24.5257 33.1188 28.5 33.1188C32.4742 33.1188 36.0272 32.502 38.5502 31.5387C39.8151 31.0557 40.7699 30.505 41.3909 29.9444C42.012 29.3837 42.2176 28.8937 42.2176 28.4993C42.2176 28.105 42.012 27.615 41.3909 27.0543C40.7699 26.4937 39.8151 25.943 38.5502 25.46C36.0272 24.4967 32.4742 23.8799 28.5 23.8799C24.5257 23.8799 20.9727 24.4967 18.4497 25.46C17.1848 25.943 16.23 26.4937 15.609 27.0543ZM17.7363 23.5916C20.5401 22.521 24.3459 21.8799 28.5 21.8799C32.654 21.8799 36.4598 22.521 39.2636 23.5916C40.662 24.1255 41.8626 24.7857 42.7311 25.5697C43.5994 26.3536 44.2176 27.3419 44.2176 28.4993C44.2176 29.6568 43.5994 30.6451 42.7311 31.429C41.8626 32.213 40.662 32.8732 39.2636 33.4071C36.4598 34.4776 32.654 35.1188 28.5 35.1188C24.3459 35.1188 20.5401 34.4776 17.7363 33.4071C16.3379 32.8732 15.1373 32.213 14.2689 31.429C13.4005 30.6451 12.7823 29.6568 12.7823 28.4993C12.7823 27.3419 13.4005 26.3536 14.2689 25.5697C15.1373 24.7857 16.3379 24.1255 17.7363 23.5916Z" fill="#61DAFB"/>
<path fill-rule="evenodd" clip-rule="evenodd" d="M23.306 16.6133C22.5098 16.3557 21.9827 16.4227 21.6412 16.6199C21.2997 16.8171 20.9781 17.2401 20.803 18.0583C20.6281 18.8765 20.6285 19.9787 20.8427 21.3156C21.27 23.9823 22.5123 27.3676 24.4994 30.8094C26.4865 34.2512 28.7972 37.0198 30.8929 38.7231C31.9437 39.5771 32.898 40.1286 33.694 40.3861C34.4901 40.6437 35.0173 40.5767 35.3588 40.3795C35.7003 40.1823 36.0219 39.7593 36.1969 38.9411C36.3719 38.1229 36.3714 37.0207 36.1572 35.6838C35.73 33.0172 34.4877 29.6318 32.5005 26.19C30.5134 22.7482 28.2028 19.9796 26.107 18.2763C25.0563 17.4223 24.102 16.8708 23.306 16.6133ZM27.3684 16.7242C29.6974 18.6171 32.1555 21.5924 34.2326 25.19C36.3096 28.7875 37.6573 32.404 38.132 35.3674C38.3688 36.8454 38.3974 38.2153 38.1527 39.3594C37.908 40.5034 37.3611 41.5328 36.3588 42.1116C35.3564 42.6903 34.1915 42.6491 33.0784 42.289C31.9652 41.9289 30.7932 41.2193 29.6315 40.2752C27.3026 38.3823 24.8444 35.407 22.7674 31.8094C20.6903 28.2119 19.3427 24.5954 18.8679 21.632C18.6311 20.154 18.6026 18.7841 18.8473 17.64C19.092 16.496 19.6388 15.4666 20.6412 14.8879C21.6435 14.3091 22.8085 14.3503 23.9216 14.7104C25.0348 15.0705 26.2068 15.7801 27.3684 16.7242Z" fill="#61DAFB"/>
<path fill-rule="evenodd" clip-rule="evenodd" d="M36.1969 18.058C36.0219 17.2398 35.7003 16.8168 35.3588 16.6196C35.0173 16.4224 34.4902 16.3554 33.694 16.613C32.898 16.8705 31.9437 17.422 30.893 18.276C28.7972 19.9793 26.4866 22.7479 24.4994 26.1897C22.5123 29.6315 21.27 33.0168 20.8428 35.6835C20.6286 37.0204 20.6281 38.1226 20.8031 38.9408C20.9781 39.759 21.2997 40.182 21.6412 40.3792C21.9827 40.5764 22.5098 40.6434 23.306 40.3858C24.102 40.1283 25.0563 39.5768 26.107 38.7228C28.2028 37.0195 30.5135 34.2509 32.5006 30.8091C34.4877 27.3673 35.73 23.9819 36.1573 21.3153C36.3715 19.9784 36.3719 18.8761 36.1969 18.058ZM38.1321 21.6317C37.6573 24.5951 36.3097 28.2116 34.2326 31.8091C32.1556 35.4067 29.6974 38.382 27.3685 40.2749C26.2068 41.219 25.0348 41.9286 23.9216 42.2887C22.8085 42.6488 21.6436 42.69 20.6412 42.1112C19.6388 41.5325 19.092 40.5031 18.8473 39.3591C18.6026 38.2149 18.6311 36.8451 18.8679 35.3671C19.3427 32.4037 20.6904 28.7872 22.7674 25.1897C24.8444 21.5921 27.3026 18.6168 29.6316 16.7239C30.7932 15.7798 31.9652 15.0702 33.0784 14.7101C34.1915 14.35 35.3565 14.3088 36.3588 14.8875C37.3612 15.4663 37.908 16.4957 38.1527 17.6397C38.3974 18.7838 38.3689 20.1536 38.1321 21.6317Z" fill="#61DAFB"/>
</svg>
