<svg width="56" height="57" viewBox="0 0 56 57" fill="none" xmlns="http://www.w3.org/2000/svg">
<path d="M41.101 36.9762C39.4083 36.9333 38.0964 37.1052 36.9961 37.5776C36.6787 37.7064 36.1708 37.7065 36.1285 38.1147C36.2978 38.2865 36.3189 38.5658 36.4671 38.8019C36.7212 39.2314 37.1653 39.8114 37.5674 40.1123C38.0116 40.4559 38.4562 40.7994 38.9215 41.1002C39.7468 41.6157 40.6779 41.9163 41.4819 42.4319C41.9476 42.7323 42.4128 43.1192 42.8784 43.4413C43.1112 43.6129 43.2592 43.8924 43.5556 43.9997V43.9354C43.4073 43.7419 43.365 43.4628 43.217 43.248C43.0056 43.0332 42.7937 42.8399 42.5821 42.6251C41.9685 41.7875 41.2068 41.0572 40.3816 40.4558C39.7046 39.9833 38.2233 39.339 37.9483 38.5442C37.9483 38.5442 37.927 38.5228 37.9059 38.5013C38.3714 38.4584 38.9215 38.2865 39.366 38.1576C40.0854 37.9642 40.7413 38.0073 41.4819 37.8139C41.8204 37.728 42.159 37.6206 42.4975 37.5132V37.32C42.1168 36.9333 41.8417 36.4179 41.4396 36.0527C40.3605 35.1075 39.1754 34.184 37.9483 33.4108C37.2923 32.9812 36.4458 32.702 35.7476 32.3369C35.4939 32.2079 35.0705 32.1436 34.9225 31.9288C34.5415 31.4563 34.3298 30.8335 34.0548 30.275C33.4414 29.0935 32.8487 27.7834 32.3197 26.5378C31.939 25.7 31.7062 24.8623 31.2407 24.0892C29.0612 20.4378 26.6914 18.2255 23.052 16.0561C22.269 15.6051 21.338 15.4118 20.3435 15.1756C19.8147 15.154 19.2855 15.1112 18.7566 15.0896C18.418 14.9392 18.0794 14.5312 17.7832 14.3379C16.5773 13.5645 13.4666 11.8894 12.578 14.1017C12.0066 15.4977 13.4244 16.8722 13.9109 17.5812C14.2709 18.0752 14.7362 18.6336 14.9902 19.1921C15.1383 19.557 15.1805 19.9439 15.3286 20.3304C15.6673 21.2752 15.9845 22.3279 16.4291 23.2086C16.6618 23.6596 16.9157 24.1321 17.2119 24.5402C17.3812 24.7764 17.6774 24.8839 17.741 25.2704C17.4448 25.7 17.4235 26.3445 17.2541 26.8814C16.4924 29.3085 16.7888 32.3154 17.8678 34.0981C18.2063 34.6349 19.0104 35.8166 20.0896 35.3654C21.0419 34.9788 20.8302 33.7545 21.1051 32.6806C21.1688 32.4226 21.1265 32.251 21.2534 32.0791V32.1222C21.5496 32.7234 21.8458 33.3036 22.1209 33.9049C22.7769 34.9572 23.9194 36.0527 24.8716 36.7831C25.3796 37.1695 25.7815 37.8354 26.4164 38.0717V38.0071H26.3739C26.247 37.8138 26.0565 37.728 25.8873 37.5775C25.5065 37.1911 25.0832 36.7185 24.787 36.2889C23.8985 35.086 23.1154 33.7544 22.4171 32.3798C22.0787 31.7141 21.7823 30.9837 21.5073 30.318C21.3802 30.0599 21.3802 29.6735 21.1687 29.5448C20.8513 30.0172 20.3858 30.4254 20.1531 31.0052C19.7512 31.9288 19.7088 33.0671 19.5606 34.2483C19.476 34.2701 19.5182 34.2484 19.4759 34.2916C18.7989 34.1195 18.5662 33.4108 18.3121 32.8094C17.6772 31.2845 17.5714 28.8359 18.1218 27.0747C18.2699 26.6236 18.9048 25.2061 18.6508 24.7765C18.5238 24.3683 18.1005 24.1321 17.8678 23.81C17.5928 23.4018 17.2964 22.8865 17.1061 22.4353C16.5982 21.2325 16.3443 19.9008 15.7942 18.698C15.5403 18.1395 15.0961 17.5598 14.7362 17.0442C14.3343 16.4643 13.8899 16.0561 13.5724 15.3688C13.4668 15.1327 13.3185 14.746 13.4878 14.4882C13.5301 14.3164 13.6146 14.2521 13.7841 14.2091C14.0592 13.9727 14.8422 14.2734 15.117 14.4023C15.9 14.7243 16.5559 15.0252 17.2119 15.4762C17.5081 15.691 17.8255 16.0992 18.2063 16.2066H18.6507C19.3279 16.3568 20.0895 16.2495 20.7243 16.4427C21.8459 16.8078 22.8614 17.3448 23.7714 17.9248C26.5433 19.7075 28.8283 22.242 30.3732 25.2704C30.6271 25.7642 30.7328 26.2156 30.9656 26.7309C31.4101 27.7834 31.9602 28.8574 32.4043 29.8883C32.8487 30.8977 33.2719 31.9288 33.9067 32.7665C34.2241 33.2174 35.4936 33.4538 36.065 33.6901C36.4882 33.8833 37.1442 34.0553 37.525 34.2914C38.2444 34.7423 38.9638 35.2581 39.641 35.7519C39.9796 36.0097 41.0374 36.5467 41.101 36.9762V36.9762Z" fill="#14B8A6"/>
<path d="M19.5181 18.3115C19.1585 18.3115 18.9046 18.3547 18.6507 18.4191V18.462H18.693C18.8624 18.8057 19.1585 19.042 19.37 19.3426C19.5394 19.6862 19.6874 20.03 19.8568 20.3737C19.8778 20.3521 19.899 20.3307 19.899 20.3307C20.1954 20.1158 20.3434 19.7722 20.3434 19.2567C20.2164 19.1064 20.1953 18.9561 20.0895 18.8057C19.9626 18.5908 19.6874 18.4835 19.5181 18.3115V18.3115Z" fill="#14B8A6"/>
</svg>
