<svg width="56" height="57" viewBox="0 0 56 57" fill="none" xmlns="http://www.w3.org/2000/svg">
<path d="M28 19.1689C23.8517 19.1689 21.2592 21.2425 20.222 25.3892C21.7778 23.3157 23.5926 22.5384 25.6666 23.0566C26.85 23.3522 27.6958 24.2108 28.6322 25.1608C30.1572 26.7084 31.9223 28.4995 35.778 28.4995C39.9259 28.4995 42.5188 26.426 43.5556 22.2789C42.0002 24.3524 40.1854 25.1301 38.111 24.6119C36.928 24.3163 36.0822 23.4577 35.1458 22.5076C33.6208 20.9601 31.8553 19.1689 28 19.1689V19.1689ZM20.222 28.4995C16.0742 28.4995 13.4812 30.5731 12.4445 34.7202C13.9998 32.6466 15.8147 31.869 17.889 32.3875C19.0721 32.6836 19.9178 33.5418 20.8542 34.4914C22.3792 36.039 24.1447 37.8305 28 37.8305C32.1483 37.8305 34.7408 35.757 35.778 31.6099C34.2222 33.6834 32.4074 34.4611 30.3334 33.9425C29.15 33.6472 28.3042 32.7883 27.3678 31.8386C25.8428 30.291 24.0778 28.4995 20.222 28.4995V28.4995Z" fill="#06B6D4"/>
</svg>
