<svg width="57" height="57" viewBox="0 0 57 57" fill="none" xmlns="http://www.w3.org/2000/svg">
<path d="M44.0556 12.9443H12.9445V44.0554H44.0556V12.9443Z" fill="#F7DF1E"/>
<path d="M33.8433 37.2502C34.4699 38.2734 35.2852 39.0255 36.7272 39.0255C37.9386 39.0255 38.7124 38.42 38.7124 37.5835C38.7124 36.581 37.9173 36.226 36.584 35.6427L35.8531 35.3292C33.7435 34.4304 32.342 33.3045 32.342 30.9242C32.342 28.7316 34.0127 27.0625 36.6235 27.0625C38.4823 27.0625 39.8186 27.7094 40.7815 29.4032L38.505 30.865C38.0038 29.9662 37.463 29.6121 36.6235 29.6121C35.7672 29.6121 35.2245 30.1553 35.2245 30.865C35.2245 31.742 35.7677 32.0971 37.022 32.6403L37.7529 32.9534C40.2368 34.0185 41.6393 35.1045 41.6393 37.546C41.6393 40.1781 39.5717 41.62 36.7949 41.62C34.0798 41.62 32.3257 40.3262 31.4675 38.6304L33.8433 37.2502ZM23.5159 37.5035C23.9751 38.3183 24.3929 39.0072 25.3973 39.0072C26.3578 39.0072 26.9638 38.6314 26.9638 37.1702V27.2294H29.8872V37.2097C29.8872 40.2368 28.1124 41.6146 25.5218 41.6146C23.181 41.6146 21.8255 40.4032 21.1361 38.9442L23.5159 37.5035Z" fill="black"/>
</svg>
