<svg width="56" height="57" viewBox="0 0 56 57" fill="none" xmlns="http://www.w3.org/2000/svg">
<path d="M28 31.2425C29.5149 31.2425 30.7429 30.0145 30.7429 28.4997C30.7429 26.9848 29.5149 25.7568 28 25.7568C26.4852 25.7568 25.2572 26.9848 25.2572 28.4997C25.2572 30.0145 26.4852 31.2425 28 31.2425Z" fill="#61DAFB"/>
<path fill-rule="evenodd" clip-rule="evenodd" d="M15.1091 27.0543C14.4879 27.615 14.2824 28.105 14.2824 28.4993C14.2824 28.8937 14.4879 29.3837 15.1091 29.9444C15.7301 30.505 16.6849 31.0557 17.9498 31.5387C20.4728 32.502 24.0258 33.1188 28 33.1188C31.9743 33.1188 35.5273 32.502 38.0502 31.5387C39.3152 31.0557 40.27 30.505 40.891 29.9444C41.5121 29.3837 41.7176 28.8937 41.7176 28.4993C41.7176 28.105 41.5121 27.615 40.891 27.0543C40.27 26.4937 39.3152 25.943 38.0502 25.46C35.5273 24.4967 31.9743 23.8799 28 23.8799C24.0258 23.8799 20.4728 24.4967 17.9498 25.46C16.6849 25.943 15.7301 26.4937 15.1091 27.0543ZM17.2364 23.5916C20.0401 22.521 23.8459 21.8799 28 21.8799C32.1541 21.8799 35.9599 22.521 38.7636 23.5916C40.1621 24.1255 41.3626 24.7857 42.2311 25.5697C43.0995 26.3536 43.7176 27.3419 43.7176 28.4993C43.7176 29.6568 43.0995 30.6451 42.2311 31.429C41.3626 32.213 40.1621 32.8732 38.7636 33.4071C35.9599 34.4776 32.1541 35.1188 28 35.1188C23.8459 35.1188 20.0401 34.4776 17.2364 33.4071C15.838 32.8732 14.6374 32.213 13.7689 31.429C12.9005 30.6451 12.2824 29.6568 12.2824 28.4993C12.2824 27.3419 12.9005 26.3536 13.7689 25.5697C14.6374 24.7857 15.838 24.1255 17.2364 23.5916Z" fill="#61DAFB"/>
<path fill-rule="evenodd" clip-rule="evenodd" d="M22.806 16.6133C22.0099 16.3557 21.4827 16.4227 21.1412 16.6199C20.7997 16.8171 20.4781 17.2401 20.3031 18.0583C20.1281 18.8765 20.1286 19.9787 20.3428 21.3156C20.77 23.9823 22.0124 27.3676 23.9995 30.8094C25.9866 34.2512 28.2973 37.0198 30.393 38.7231C31.4437 39.5771 32.398 40.1286 33.1941 40.3861C33.9902 40.6437 34.5173 40.5767 34.8588 40.3795C35.2004 40.1823 35.5219 39.7593 35.697 38.9411C35.872 38.1229 35.8715 37.0207 35.6573 35.6838C35.2301 33.0172 33.9877 29.6318 32.0006 26.19C30.0135 22.7482 27.7028 19.9796 25.6071 18.2763C24.5563 17.4223 23.602 16.8708 22.806 16.6133ZM26.8685 16.7242C29.1974 18.6171 31.6556 21.5924 33.7326 25.19C35.8097 28.7875 37.1573 32.404 37.6321 35.3674C37.8689 36.8454 37.8974 38.2153 37.6527 39.3594C37.408 40.5034 36.8612 41.5328 35.8588 42.1116C34.8565 42.6903 33.6915 42.6491 32.5785 42.289C31.4652 41.9289 30.2932 41.2193 29.1316 40.2752C26.8026 38.3823 24.3445 35.407 22.2674 31.8094C20.1904 28.2119 18.8427 24.5954 18.368 21.632C18.1312 20.154 18.1026 18.7841 18.3473 17.64C18.592 16.496 19.1389 15.4666 20.1412 14.8879C21.1436 14.3091 22.3085 14.3503 23.4216 14.7104C24.5348 15.0705 25.7068 15.7801 26.8685 16.7242Z" fill="#61DAFB"/>
<path fill-rule="evenodd" clip-rule="evenodd" d="M35.6969 18.058C35.5219 17.2398 35.2003 16.8168 34.8588 16.6196C34.5173 16.4224 33.9902 16.3554 33.194 16.613C32.398 16.8705 31.4437 17.422 30.393 18.276C28.2972 19.9793 25.9866 22.7479 23.9994 26.1897C22.0123 29.6315 20.77 33.0168 20.3428 35.6835C20.1286 37.0204 20.1281 38.1226 20.3031 38.9408C20.4781 39.759 20.7997 40.182 21.1412 40.3792C21.4827 40.5764 22.0098 40.6434 22.806 40.3858C23.602 40.1283 24.5563 39.5768 25.607 38.7228C27.7028 37.0195 30.0135 34.2509 32.0006 30.8091C33.9877 27.3673 35.23 23.9819 35.6573 21.3153C35.8715 19.9784 35.8719 18.8761 35.6969 18.058ZM37.6321 21.6317C37.1573 24.5951 35.8097 28.2116 33.7326 31.8091C31.6556 35.4067 29.1974 38.382 26.8685 40.2749C25.7068 41.219 24.5348 41.9286 23.4216 42.2887C22.3085 42.6488 21.1436 42.69 20.1412 42.1112C19.1388 41.5325 18.592 40.5031 18.3473 39.3591C18.1026 38.2149 18.1311 36.8451 18.3679 35.3671C18.8427 32.4037 20.1904 28.7872 22.2674 25.1897C24.3444 21.5921 26.8026 18.6168 29.1316 16.7239C30.2932 15.7798 31.4652 15.0702 32.5784 14.7101C33.6915 14.35 34.8565 14.3088 35.8588 14.8875C36.8612 15.4663 37.408 16.4957 37.6527 17.6397C37.8974 18.7838 37.8689 20.1536 37.6321 21.6317Z" fill="#61DAFB"/>
</svg>
