<svg width="57" height="57" viewBox="0 0 57 57" fill="none" xmlns="http://www.w3.org/2000/svg">
<path d="M40.8115 18.9922C38.931 16.557 36.3705 14.7342 33.454 13.7543C30.5374 12.7744 27.3958 12.6815 24.4264 13.4872C21.457 14.2929 18.7932 15.9611 16.772 18.2808C14.7507 20.6005 13.4628 23.4675 13.0711 26.5192C12.6793 29.571 13.2014 32.6703 14.5712 35.4253C15.9411 38.1803 18.0971 40.4672 20.7668 41.9968C23.4364 43.5264 26.4997 44.2299 29.5691 44.0184C32.6386 43.8069 35.5765 42.6899 38.0111 40.8086C44.8069 35.5567 46.061 25.7904 40.8111 18.9922H40.8115Z" fill="#FF6C37"/>
<path d="M33.7464 22.8562L27.1874 29.4673L25.3339 27.5617C31.7893 21.1062 32.4373 21.6895 33.7469 22.8562H33.7464Z" fill="#1E2235"/>
<path d="M27.1874 29.6473C27.1293 29.6459 27.0738 29.6229 27.0318 29.5827L25.1652 27.716C25.1232 27.6725 25.0997 27.6144 25.0997 27.5539C25.0997 27.4934 25.1232 27.4353 25.1652 27.3918C31.5298 21.0272 32.3985 21.3252 33.902 22.6863C33.9272 22.7064 33.9473 22.7322 33.9608 22.7614C33.9743 22.7907 33.9808 22.8227 33.9798 22.855C33.9895 22.9182 33.9652 22.9828 33.9151 23.0236L27.3561 29.5832C27.3101 29.6253 27.2498 29.6484 27.1874 29.6478V29.6473ZM25.6576 27.5605L27.1874 29.0903L33.4096 22.8681C33.1947 22.5989 32.8882 22.4183 32.5485 22.3609C32.2089 22.3035 31.8601 22.3733 31.5687 22.557C30.4409 23.0625 28.6263 24.605 25.6576 27.5605V27.5605Z" fill="#FF6C37"/>
<path d="M29.0671 31.2948L27.2783 29.4671L33.8373 22.9854C35.6005 24.7096 32.9818 27.5873 29.0671 31.2943V31.2948Z" fill="#1E2235"/>
<path d="M29.0672 31.5274C29.0098 31.5228 28.9554 31.5002 28.9117 31.4627L27.0839 29.6739C27.0565 29.6074 27.0565 29.5328 27.0839 29.4663C27.0645 29.4117 27.0645 29.3522 27.0839 29.2976L33.643 22.7386C33.6886 22.6957 33.7488 22.6719 33.8114 22.6719C33.874 22.6719 33.9342 22.6957 33.9798 22.7386C34.1922 22.9341 34.3601 23.173 34.4719 23.4392C34.5837 23.7054 34.6369 23.9925 34.6278 24.281C34.6278 26.031 32.6314 28.2345 29.2354 31.4496C29.1901 31.4945 29.1304 31.522 29.0667 31.5274H29.0672ZM27.6152 29.4663L29.0799 30.9304C31.6723 28.4805 34.1485 25.9527 34.1612 24.2416C34.1753 23.8789 34.0553 23.5236 33.8243 23.2437L27.6152 29.4663Z" fill="#FF6C37"/>
<path d="M25.3854 27.6L26.6819 28.8964C26.6902 28.9037 26.6968 28.9127 26.7013 28.9228C26.7059 28.9328 26.7082 28.9437 26.7082 28.9548C26.7082 28.9658 26.7059 28.9767 26.7013 28.9868C26.6968 28.9968 26.6902 29.0058 26.6819 29.0131L23.9466 29.5964C23.8914 29.6083 23.8338 29.6019 23.7825 29.578C23.7313 29.5542 23.6893 29.5143 23.6629 29.4643C23.6365 29.4144 23.6271 29.3572 23.6362 29.3015C23.6453 29.2457 23.6723 29.1945 23.7132 29.1555L25.3077 27.5742C25.3077 27.5742 25.3597 27.5742 25.3854 27.6Z" fill="#1E2235"/>
<path d="M23.8819 29.8559C23.7954 29.8548 23.7107 29.8316 23.6358 29.7884C23.561 29.7453 23.4984 29.6837 23.4541 29.6094C23.4042 29.5154 23.3862 29.4078 23.4025 29.3027C23.4189 29.1975 23.4689 29.1005 23.545 29.0261L25.1263 27.4317C25.1833 27.3807 25.2571 27.3525 25.3336 27.3525C25.4101 27.3525 25.4839 27.3807 25.5409 27.4317L26.8374 28.7281C26.9142 28.8011 26.9443 28.9114 26.9152 29.0135C26.886 29.1156 26.8004 29.1967 26.6949 29.221L23.9596 29.8044L23.8819 29.8559ZM25.3339 27.8857L23.8692 29.3504L26.2934 28.8317L25.3339 27.8857Z" fill="#FF6C37"/>
<path d="M37.2338 19.2129C36.2956 18.3077 34.8217 18.2698 33.8378 19.1239C32.8539 19.978 32.6857 21.4441 33.4518 22.4989C34.2179 23.5538 35.6622 23.8493 36.7803 23.1795L35.0171 21.4164L37.2338 19.2129Z" fill="#1E2235"/>
<path d="M35.4838 23.7759C34.9448 23.769 34.4197 23.6036 33.974 23.3004C33.5284 22.9972 33.1818 22.5695 32.9774 22.0706C32.7732 21.5722 32.7197 21.0248 32.8234 20.4962C32.927 19.9676 33.1834 19.481 33.5608 19.0966C34.0797 18.5872 34.778 18.3018 35.5052 18.3018C36.2325 18.3018 36.9307 18.5872 37.4496 19.0966C37.4992 19.1384 37.5274 19.2002 37.5274 19.2653C37.5273 19.2974 37.5203 19.329 37.5069 19.3581C37.4935 19.3872 37.4739 19.4131 37.4496 19.434L35.3496 21.4173L36.9441 22.986C36.9699 23.0107 36.9893 23.0413 37.0006 23.0752C37.0119 23.1091 37.0147 23.1452 37.0087 23.1804C37.0049 23.2144 36.9936 23.2471 36.9757 23.2763C36.9579 23.3054 36.9338 23.3303 36.9052 23.3491C36.4769 23.6168 35.9844 23.7646 35.4794 23.7769L35.4838 23.7759ZM35.4838 18.7462C34.5602 18.751 33.7338 19.3066 33.3872 20.1559C33.0406 21.0051 33.2292 21.9827 33.8767 22.635C34.1988 22.9589 34.6112 23.1781 35.0599 23.2637C35.5086 23.3493 35.9727 23.2974 36.3914 23.1148L34.8616 21.585C34.8373 21.5656 34.8176 21.5409 34.8041 21.5128C34.7907 21.4848 34.7836 21.454 34.7836 21.4229C34.7836 21.3918 34.7907 21.361 34.8041 21.333C34.8176 21.3049 34.8373 21.2802 34.8616 21.2608L36.8838 19.2255C36.4818 18.9174 35.9903 18.7489 35.4838 18.7457V18.7462Z" fill="#FF6C37"/>
<path d="M37.2727 19.252L35.056 21.4555L36.8191 23.2186C36.9966 23.1167 37.1618 22.9949 37.3115 22.8555C37.7736 22.367 38.0279 21.7182 38.0206 21.0458C38.0134 20.3735 37.7452 19.7303 37.2727 19.252V19.252Z" fill="#1E2235"/>
<path d="M36.7798 23.4132C36.7506 23.4148 36.7215 23.4098 36.6946 23.3986C36.6677 23.3874 36.6436 23.3703 36.6242 23.3485L34.8611 21.5854C34.8368 21.566 34.8171 21.5413 34.8036 21.5132C34.7901 21.4852 34.7831 21.4544 34.7831 21.4233C34.7831 21.3922 34.7901 21.3614 34.8036 21.3334C34.8171 21.3053 34.8368 21.2806 34.8611 21.2612L37.0646 19.0965C37.0859 19.0645 37.1148 19.0381 37.1487 19.0199C37.1826 19.0017 37.2205 18.9922 37.2591 18.9922C37.2976 18.9922 37.3355 19.0017 37.3694 19.0199C37.4033 19.0381 37.4322 19.0645 37.4535 19.0965C37.7122 19.35 37.9177 19.6525 38.058 19.9864C38.1983 20.3203 38.2706 20.6788 38.2706 21.041C38.2706 21.4031 38.1983 21.7617 38.058 22.0955C37.9177 22.4294 37.7122 22.7319 37.4535 22.9854C37.3009 23.1473 37.1263 23.2868 36.9348 23.4001C36.8866 23.4244 36.8309 23.4291 36.7793 23.4132H36.7798ZM35.354 21.4172L36.8186 22.8819C36.9194 22.8112 37.0148 22.7333 37.104 22.6485C37.5345 22.2191 37.777 21.6364 37.7782 21.0283C37.7792 20.4842 37.5809 19.9585 37.2206 19.5506L35.354 21.4172Z" fill="#FF6C37"/>
<path d="M34.0187 23.1277C33.8431 22.9629 33.6113 22.8711 33.3704 22.8711C33.1296 22.8711 32.8978 22.9629 32.7222 23.1277L26.8505 28.9863L27.8227 29.9717L34.0318 24.5273C34.1265 24.4365 34.2016 24.3273 34.2525 24.2065C34.3034 24.0856 34.329 23.9556 34.3278 23.8244C34.3266 23.6933 34.2985 23.5638 34.2454 23.4439C34.1922 23.324 34.115 23.2162 34.0187 23.1273V23.1277Z" fill="#1E2235"/>
<path d="M27.7707 30.2053C27.7126 30.2038 27.6572 30.1808 27.6152 30.1406L26.6298 29.1553C26.5878 29.1118 26.5643 29.0536 26.5643 28.9932C26.5643 28.9327 26.5878 28.8745 26.6298 28.831L32.502 22.9846C32.6712 22.8157 32.8871 22.7015 33.122 22.6568C33.3568 22.6121 33.5997 22.639 33.819 22.734C34.0384 22.8289 34.2242 22.9877 34.3523 23.1895C34.4803 23.3913 34.5448 23.627 34.5373 23.8659C34.5306 24.0281 34.4916 24.1873 34.4226 24.3342C34.3535 24.4811 34.2559 24.6128 34.1353 24.7215L27.9263 30.1659C27.8811 30.1978 27.8256 30.2117 27.7707 30.2048V30.2053ZM27.0839 28.9861L27.7319 29.6472L33.8242 24.3452C33.9749 24.214 34.0649 24.0264 34.0707 23.8266C34.0765 23.6268 33.9978 23.4314 33.8505 23.2953C33.7145 23.1598 33.5303 23.0838 33.3384 23.0838C33.1464 23.0838 32.9623 23.1598 32.8263 23.2953L27.0839 28.9861Z" fill="#FF6C37"/>
<path d="M22.3006 35.663C22.284 35.6855 22.2751 35.7128 22.2751 35.7407C22.2751 35.7687 22.284 35.796 22.3006 35.8185L22.5597 36.9463C22.5701 37.0127 22.5602 37.0806 22.5314 37.1413C22.5026 37.202 22.4563 37.2526 22.3983 37.2866C22.3405 37.3204 22.2736 37.3349 22.207 37.3282C22.1404 37.3215 22.0777 37.2938 22.0279 37.2491L20.2521 35.538L25.7874 29.959H27.7061L29.0025 31.2554C26.9802 33.0236 24.7253 34.5066 22.3006 35.663V35.663Z" fill="#1E2235"/>
<path d="M22.1839 37.5686C22.0371 37.5657 21.8922 37.5054 21.795 37.3999L20.097 35.7019C20.0727 35.6825 20.0531 35.6578 20.0396 35.6298C20.0261 35.6017 20.0191 35.571 20.0191 35.5398C20.0191 35.5087 20.0261 35.478 20.0396 35.4499C20.0531 35.4218 20.0727 35.3972 20.097 35.3777L25.6707 29.7909C25.702 29.7577 25.7427 29.7351 25.7874 29.7262H27.7187C27.769 29.7084 27.8239 29.7084 27.8743 29.7262L29.1707 31.0227C29.1954 31.0454 29.2141 31.0738 29.2254 31.1054C29.2367 31.137 29.2401 31.1708 29.2354 31.204C29.2363 31.2362 29.2297 31.2682 29.2162 31.2975C29.2028 31.3267 29.1827 31.3525 29.1576 31.3727L29.0541 31.4636C27.0235 33.1564 24.7896 34.589 22.4041 35.7282L22.6506 36.7782C22.6696 36.8592 22.6703 36.9434 22.6527 37.0247C22.6351 37.106 22.5995 37.1824 22.5486 37.2482C22.4977 37.314 22.4327 37.3677 22.3584 37.4052C22.2841 37.4427 22.2024 37.4631 22.1193 37.4651L22.1839 37.5686ZM20.6026 35.5333L22.1319 37.0757C22.1461 37.0884 22.1646 37.0954 22.1837 37.0954C22.2028 37.0954 22.2212 37.0884 22.2354 37.0757C22.245 37.0624 22.2501 37.0465 22.2501 37.0302C22.2501 37.0139 22.245 36.998 22.2354 36.9848L21.9763 35.857C21.9559 35.7761 21.9641 35.6906 21.9996 35.615C22.035 35.5394 22.0955 35.4784 22.1708 35.4424C24.4921 34.3184 26.6685 32.9167 28.652 31.2682L27.5889 30.2051H25.8521L20.6026 35.5333Z" fill="#FF6C37"/>
<path d="M18.9172 36.8687L20.2137 35.5723L22.2101 37.5687L19.0344 37.3485C18.9799 37.3442 18.9281 37.3228 18.8864 37.2874C18.8448 37.2519 18.8154 37.2042 18.8025 37.1511C18.7895 37.098 18.7937 37.0421 18.8144 36.9915C18.8351 36.9408 18.8713 36.898 18.9177 36.8692L18.9172 36.8687Z" fill="#1E2235"/>
<path d="M22.2486 37.7626L19.0855 37.5423C18.8979 37.5248 18.7365 37.3965 18.6704 37.2249C18.6042 37.0533 18.6446 36.8496 18.7744 36.7126L20.0708 35.4161C20.1143 35.3741 20.1725 35.3506 20.2329 35.3506C20.2934 35.3506 20.3516 35.3741 20.3951 35.4161L22.3784 37.3994C22.4058 37.437 22.4206 37.4824 22.4206 37.529C22.4206 37.5755 22.4058 37.6209 22.3784 37.6585C22.3484 37.707 22.3025 37.7436 22.2486 37.7621V37.7626ZM19.0855 37.0368L21.6779 37.2055L20.2521 35.8701L19.0855 37.0368Z" fill="#FF6C37"/>
<path d="M27.8874 30.1152L25.2687 30.5172L26.7854 29.0137L27.8874 30.1152Z" fill="#1E2235"/>
<path d="M25.2687 30.7623C25.2252 30.7635 25.1823 30.7518 25.1454 30.7287C25.1085 30.7056 25.0792 30.6722 25.0612 30.6325C25.0336 30.595 25.0187 30.5496 25.0187 30.503C25.0187 30.4564 25.0336 30.411 25.0612 30.3734L26.5647 28.8568C26.6103 28.8139 26.6705 28.79 26.7331 28.79C26.7957 28.79 26.8559 28.8139 26.9015 28.8568L28.004 29.9583C28.026 29.9932 28.0377 30.0337 28.0377 30.075C28.0377 30.1163 28.026 30.1567 28.004 30.1916C27.9932 30.2342 27.9704 30.2727 27.9382 30.3027C27.906 30.3326 27.8659 30.3526 27.8227 30.3603L25.2303 30.7623H25.2687ZM26.7854 29.3492L25.943 30.1916L27.3949 29.9714L26.7854 29.3492Z" fill="#FF6C37"/>
<path d="M27.8874 30.1147L26.0596 30.348C26.0107 30.3592 25.9595 30.3542 25.9137 30.3339C25.8678 30.3136 25.8297 30.2791 25.8049 30.2355C25.7802 30.1918 25.7702 30.1414 25.7765 30.0916C25.7827 30.0418 25.8047 29.9954 25.8394 29.9592L26.7859 29.0127L27.8874 30.1147Z" fill="#1E2235"/>
<path d="M26.0077 30.5942C25.9229 30.5934 25.8399 30.5701 25.7671 30.5269C25.6943 30.4836 25.6342 30.4218 25.593 30.3477C25.5435 30.259 25.5243 30.1565 25.5384 30.0559C25.5524 29.9553 25.5989 29.862 25.6708 29.7902L26.6172 28.8437C26.6628 28.8008 26.7231 28.777 26.7857 28.777C26.8483 28.777 26.9085 28.8008 26.9541 28.8437L28.0561 29.9457C28.0889 29.9768 28.1119 30.0167 28.1225 30.0606C28.133 30.1044 28.1306 30.1505 28.1156 30.193C28.1005 30.2356 28.0734 30.2728 28.0376 30.3003C28.0017 30.3278 27.9587 30.3442 27.9137 30.3477L26.099 30.5811L26.0077 30.5942ZM26.0077 30.1144L27.3819 29.9457L26.7728 29.3366L25.995 30.1144H26.0077ZM37.2853 20.7422C37.2609 20.7013 37.2223 20.6708 37.1769 20.6565C37.1315 20.6421 37.0824 20.645 37.0389 20.6645C37.0174 20.6753 36.9984 20.6904 36.9828 20.7088C36.9673 20.7271 36.9556 20.7484 36.9485 20.7714C36.934 20.8177 36.9386 20.8679 36.9611 20.9109C37.052 21.102 37.0267 21.328 36.8964 21.4942C36.8803 21.5103 36.8676 21.5295 36.8592 21.5506C36.8509 21.5718 36.847 21.5945 36.8478 21.6172C36.8483 21.6628 36.8656 21.7066 36.8964 21.7402C36.9297 21.7533 36.9667 21.7533 37 21.7402C37.0302 21.7478 37.0619 21.747 37.0916 21.7378C37.1213 21.7286 37.148 21.7115 37.1687 21.6882C37.2754 21.5575 37.343 21.3993 37.3636 21.2318C37.3843 21.0643 37.3571 20.8944 37.2853 20.7417V20.7422Z" fill="#FF6C37"/>
</svg>
