<svg width="57" height="57" viewBox="0 0 57 57" fill="none" xmlns="http://www.w3.org/2000/svg">
<path d="M35.6595 32.8309C34.9452 32.8309 34.3641 32.2493 34.3641 31.535C34.3641 30.8207 34.9452 30.2396 35.6595 30.2396C36.3739 30.2396 36.955 30.8206 36.955 31.535C36.955 32.2494 36.3739 32.8309 35.6595 32.8309ZM21.3405 32.8309C20.6262 32.8309 20.0451 32.2493 20.0451 31.535C20.0451 30.8207 20.6261 30.2396 21.3405 30.2396C22.0549 30.2396 22.6359 30.8206 22.6359 31.535C22.6359 32.2494 22.055 32.8309 21.3405 32.8309ZM36.1241 25.0272L38.7133 20.543C38.7845 20.4193 38.8038 20.2723 38.7668 20.1344C38.7299 19.9964 38.6397 19.8788 38.5161 19.8073C38.3923 19.736 38.2454 19.7168 38.1074 19.7537C37.9695 19.7907 37.8519 19.8808 37.7803 20.0044L35.1588 24.5453C33.154 23.6305 30.9025 23.1208 28.5 23.1208C26.0975 23.1208 23.8461 23.6305 21.8413 24.5453L19.2197 20.0044C19.1482 19.8808 19.0305 19.7907 18.8926 19.7537C18.7547 19.7168 18.6077 19.736 18.4839 19.8073C18.3603 19.8787 18.27 19.9964 18.2331 20.1343C18.1961 20.2723 18.2154 20.4193 18.2868 20.543L20.8759 25.0272C16.43 27.4453 13.3893 31.9462 12.9445 37.2637H44.0556C43.6104 31.9463 40.5697 27.4453 36.1241 25.0271" fill="#3DDB85"/>
</svg>
