<svg width="57" height="57" viewBox="0 0 57 57" fill="none" xmlns="http://www.w3.org/2000/svg">
<path d="M12.9445 12.9443H44.0556V44.0554H12.9445V12.9443Z" fill="#017ACB"/>
<path d="M27.8827 24.465H29.375V27.0414H25.3403V38.5039L25.2334 38.533C25.0875 38.5719 23.1674 38.5719 22.7542 38.5282L22.4236 38.499V27.0414H18.3889V24.465L19.6674 24.4504C20.3674 24.4407 22.166 24.4407 23.6632 24.4504C25.1605 24.4601 27.0563 24.465 27.8827 24.465V24.465ZM39.2723 37.2886C38.6792 37.9157 38.0424 38.2657 36.9827 38.5525C36.5209 38.6789 36.4431 38.6837 35.4028 38.6789C34.3626 38.674 34.2799 38.674 33.7744 38.5427C32.4667 38.2073 31.4119 37.5511 30.6924 36.6226C30.4882 36.3601 30.1528 35.8157 30.1528 35.7476C30.1528 35.7282 30.2014 35.6844 30.2646 35.6553C30.3278 35.6261 30.4591 35.5434 30.566 35.4803C30.673 35.4171 30.8674 35.3004 30.9987 35.2323C31.1299 35.1643 31.5091 34.9407 31.8396 34.7414C32.1702 34.5421 32.4716 34.3816 32.5056 34.3816C32.5396 34.3816 32.6028 34.4497 32.6514 34.5323C32.9431 35.0233 33.6237 35.6504 34.1049 35.8643C34.4014 35.9907 35.0577 36.1316 35.3737 36.1316C35.6653 36.1316 36.2001 36.0053 36.4869 35.874C36.7931 35.733 36.9487 35.5921 37.1334 35.3101C37.2598 35.1108 37.2744 35.0573 37.2695 34.6782C37.2695 34.3282 37.2501 34.2309 37.1528 34.0705C36.8806 33.6233 36.5112 33.39 35.0139 32.7289C33.4681 32.0434 32.773 31.6351 32.2091 31.0858C31.791 30.6775 31.7084 30.5657 31.4459 30.0553C31.1056 29.399 31.0619 29.1851 31.057 28.208C31.0521 27.5226 31.0667 27.299 31.1396 27.0657C31.2417 26.7157 31.5723 26.04 31.723 25.8698C32.0341 25.5053 32.1459 25.3934 32.3646 25.2136C33.0257 24.6691 34.0563 24.3094 35.0431 24.2754C35.1549 24.2754 35.5244 24.2948 35.8695 24.3191C36.8612 24.4018 37.5369 24.6448 38.1883 25.165C38.6792 25.5539 39.423 26.4678 39.3501 26.5893C39.3015 26.6622 37.3619 27.9553 37.2355 27.9941C37.1577 28.0184 37.1042 27.9893 36.9973 27.8629C36.3362 27.0705 36.0688 26.9004 35.4271 26.8615C34.9702 26.8323 34.7271 26.8858 34.4209 27.09C34.1001 27.3039 33.9445 27.6296 33.9445 28.0816C33.9494 28.7428 34.2021 29.0539 35.1355 29.5157C35.7383 29.8122 36.2535 30.0553 36.2924 30.0553C36.3508 30.0553 37.6001 30.6775 37.9258 30.8719C39.4424 31.7615 40.0598 32.6754 40.2202 34.2504C40.3369 35.4365 40.0015 36.5205 39.2723 37.2886V37.2886Z" fill="#1E2235"/>
</svg>
